<svg width="157" height="26" viewBox="0 0 157 26" fill="none" xmlns="http://www.w3.org/2000/svg">
<path d="M138.87 24.1681L136.566 25.1601L131.574 11.9761C131.222 11.0161 130.934 10.6961 130.038 10.1521L129.238 9.70414V8.74414H138.038V9.70414L137.174 10.0241C136.406 10.2801 136.022 10.6641 136.022 11.0801C136.022 11.3041 136.054 11.5921 136.182 12.0081L138.71 19.4641L142.614 9.41614L144.95 8.74414L149.238 19.4321L151.862 12.0081C152.022 11.5921 152.086 11.3361 152.086 11.0801C152.086 10.6321 151.734 10.2801 150.934 10.0241L150.038 9.70414V8.74414H156.47V9.70414L155.478 10.2801C154.646 10.7601 154.358 11.0481 154.038 11.9121L149.526 24.1681L147.318 25.1601L142.774 14.3441L138.87 24.1681Z" fill="#0C230E"/>
<path d="M120.504 25.1598C115.576 25.1598 112.216 21.8638 112.216 16.7758C112.216 12.0078 115.832 8.42383 120.504 8.42383C125.464 8.42383 128.792 11.7518 128.792 16.8398C128.792 21.6078 125.176 25.1598 120.504 25.1598ZM120.504 23.3998C122.904 23.3998 124.344 20.9678 124.344 16.8398C124.344 12.6798 122.904 10.1838 120.504 10.1838C118.136 10.1838 116.664 12.6478 116.664 16.7758C116.664 20.9038 118.136 23.3998 120.504 23.3998Z" fill="#0C230E"/>
<path d="M107.02 24.8398H97.4523V23.8798L98.6683 23.3358C99.5963 22.8878 99.8523 22.4718 99.8523 21.3838V14.1838C99.8523 12.7118 99.5643 12.1998 98.6683 11.9438L97.5483 11.5918V10.6638L102.732 8.42383L103.596 8.93583V11.9438C104.588 9.89583 106.348 8.42383 107.98 8.42383C109.004 8.42383 110.06 8.83983 110.892 9.54383L110.444 13.6078H109.42C108.428 12.1038 107.82 11.6558 106.764 11.6558C105.868 11.6558 104.908 12.3598 103.948 13.5758V21.3838C103.948 22.3438 104.3 22.7598 105.708 23.3358L107.02 23.8798V24.8398Z" fill="#0C230E"/>
<path d="M85.645 25.1596C78.285 25.1596 74.061 21.0956 74.061 13.9916C74.061 7.20761 78.797 2.59961 85.709 2.59961C88.301 2.59961 91.085 3.20761 93.293 4.29561L93.613 9.79961H92.557L91.277 7.91161C89.517 5.47961 88.013 4.61561 85.837 4.61561C81.549 4.61561 78.701 8.39161 78.701 13.9916C78.701 19.4636 81.709 23.0156 86.317 23.0156C87.629 23.0156 89.005 22.6956 89.677 22.1516V18.1836C89.677 17.2236 89.325 16.7756 88.141 16.2636L86.957 15.7196V14.6956H95.661V15.7196L94.957 16.1036C94.285 16.4236 94.029 16.9036 94.029 17.7996V22.8556C91.981 24.3276 89.005 25.1596 85.645 25.1596Z" fill="#0C230E"/>
<path d="M62.9726 25.1598C58.0446 25.1598 54.6846 21.8638 54.6846 16.7758C54.6846 12.0078 58.3006 8.42383 62.9726 8.42383C67.9326 8.42383 71.2606 11.7518 71.2606 16.8398C71.2606 21.6078 67.6446 25.1598 62.9726 25.1598ZM62.9726 23.3998C65.3726 23.3998 66.8126 20.9678 66.8126 16.8398C66.8126 12.6798 65.3726 10.1838 62.9726 10.1838C60.6046 10.1838 59.1326 12.6478 59.1326 16.7758C59.1326 20.9038 60.6046 23.3998 62.9726 23.3998Z" fill="#0C230E"/>
<path d="M52.5045 24.8398H43.6085V23.8798L44.8245 23.3358C45.7525 22.8878 46.0085 22.5038 46.0085 21.3838V6.50385C46.0085 5.06384 45.7205 4.61584 44.8245 4.32784L43.7045 3.97585V3.01584L49.2405 0.839844L50.1045 1.38384V21.3838C50.1045 22.5038 50.3605 22.8878 51.2885 23.3358L52.5045 23.8798V24.8398Z" fill="#0C230E"/>
<path d="M31.3603 25.1598C28.3203 25.1598 26.3363 23.3998 26.3363 20.7118C26.3363 18.6318 27.7443 17.0318 30.1123 16.1998C31.7443 15.5918 33.6963 15.3038 35.7443 15.1758V14.3758C35.7443 11.5278 34.8483 10.2798 33.0563 10.2798C32.2243 10.2798 31.4563 10.4398 30.9123 10.8878C30.4323 11.2398 30.0483 11.8478 29.4403 13.6078H27.9683L26.8803 10.5998C29.2163 9.03183 31.2323 8.42383 33.6003 8.42383C37.8883 8.42383 39.8403 10.1838 39.8403 14.5038V20.4878C39.8403 21.5758 40.0963 21.8638 41.2483 22.0878L42.3363 22.2478L42.5283 23.2718L37.5683 25.1598H36.8003L35.9043 22.7278C34.8163 24.1998 33.0563 25.1598 31.3603 25.1598ZM32.9923 22.3438C33.9523 22.3438 34.9763 21.8958 35.7443 20.9998V16.7118C34.6883 16.7758 33.7283 16.9358 32.9923 17.1598C31.4243 17.6078 30.5603 18.5678 30.5603 19.9758C30.5603 21.3838 31.5523 22.3438 32.9923 22.3438Z" fill="#0C230E"/>
<path d="M9.312 24.8399H0V23.8479L1.152 23.3039C2.24 22.7599 2.464 22.3439 2.464 21.3519V6.40792C2.464 5.41592 2.24 4.96792 1.152 4.45592L0 3.91192V2.91992H9.312V3.91192L8.16 4.45592C7.072 4.96792 6.816 5.41592 6.816 6.40792V12.6799H16.8V6.40792C16.8 5.41592 16.576 4.96792 15.488 4.45592L14.336 3.91192V2.91992H23.648V3.91192L22.496 4.45592C21.408 4.96792 21.152 5.41592 21.152 6.40792V21.3519C21.152 22.3439 21.408 22.7599 22.496 23.3039L23.648 23.8479V24.8399H14.336V23.8479L15.488 23.3039C16.576 22.7599 16.8 22.3439 16.8 21.3519V14.6959H6.816V21.3519C6.816 22.3439 7.072 22.7599 8.16 23.3039L9.312 23.8479V24.8399Z" fill="#0C230E"/>
</svg>
